<?xml version="1.0" encoding="UTF-8" standalone="no"?>
<!-- Created with Inkscape (http://www.inkscape.org/) -->

<svg
   xmlns:dc="http://purl.org/dc/elements/1.1/"
   xmlns:cc="http://creativecommons.org/ns#"
   xmlns:rdf="http://www.w3.org/1999/02/22-rdf-syntax-ns#"
   xmlns:svg="http://www.w3.org/2000/svg"
   xmlns="http://www.w3.org/2000/svg"
   xmlns:sodipodi="http://sodipodi.sourceforge.net/DTD/sodipodi-0.dtd"
   xmlns:inkscape="http://www.inkscape.org/namespaces/inkscape"
   id="svg2"
   sodipodi:docname="bg-bible.svg"
   viewBox="0 0 630.00003 650.00231"
   sodipodi:version="0.32"
   version="1.1"
   inkscape:output_extension="org.inkscape.output.svg.inkscape"
   inkscape:version="0.91 r13725"
   width="630"
   height="650">
  <defs
     id="defs5">
    <filter
       inkscape:collect="always"
       x="-0.19531"
       y="-0.086606003"
       width="1.3906"
       height="1.1732"
       id="filter4338"
       style="color-interpolation-filters:sRGB">
      <feGaussianBlur
         inkscape:collect="always"
         stdDeviation="21.857813"
         id="feGaussianBlur4340" />
    </filter>
  </defs>
  <sodipodi:namedview
     id="base"
     bordercolor="#666666"
     inkscape:pageshadow="2"
     guidetolerance="10.0"
     pagecolor="#ffffff"
     gridtolerance="10.0"
     inkscape:window-maximized="1"
     inkscape:zoom="0.43901235"
     objecttolerance="10.0"
     inkscape:window-height="970"
     showgrid="false"
     borderopacity="1.0"
     inkscape:current-layer="svg2"
     inkscape:cx="256.87474"
     inkscape:cy="575.43329"
     inkscape:window-y="0"
     inkscape:window-x="0"
     inkscape:window-width="1280"
     inkscape:pageopacity="0.0" />
  <path
     id="path3405"
     inkscape:connector-curvature="0"
     sodipodi:nodetypes="csscsssc"
     style="fill:#ffcf9b;fill-rule:evenodd;stroke:#ffffff;stroke-width:10"
     d="m 232.34456,638.06833 c 6.83,0 -31.11,1.60004 38.72,-9.10036 74.03,-11.40008 315.97,-91.69008 318.9,-103.66008 4.48,-18.31002 -176.53,-314.34002 -176.53,-314.34002 0,0 -145.79,17.08 -153.76,21.64 -7.97,4.55 -88.83,253.97 -87.69,264.22 1.13,10.26 12.52,83.14002 25.05,109.34002 12.53,26.2002 37.59,33.00048 35.31,31.90044 z" />
  <path
     id="path3407"
     inkscape:connector-curvature="0"
     sodipodi:nodetypes="csscsssc"
     style="fill:#d6cec5;fill-rule:evenodd;stroke:#ffffff;stroke-width:10"
     d="m 232.87456,616.96789 c 18.23,0 60.95,-13.3 68.34,-14.8 49.41,-10.2 286.35,-86.02002 289.28,-97.99002 4.48,-18.31 -176.53,-314.34 -176.53,-314.34 0,0 -145.78,17.08 -153.75,21.64 -7.98,4.55 -88.84,253.98 -87.7,264.23 1.14,10.25 1.14,63.78002 13.67,89.96002 12.52,26.2 37.58,47.8 46.69,51.3 z" />
  <path
     id="path3409"
     inkscape:connector-curvature="0"
     sodipodi:nodetypes="cscsscc"
     style="fill:#d6cec5;fill-rule:evenodd;stroke:#ffffff;stroke-width:10"
     d="m 282.99456,585.06789 c 74.02,-11.4 315.96,-91.70002 318.89,-103.67002 4.48,-18.31 -176.53,-314.34 -176.53,-314.34 0,0 -145.78,17.08 -153.75,21.64 -7.98,4.55 -88.84,253.98 -87.7,264.23 1.14,10.25 -4.56,80.86002 7.97,107.04002 29.34,45 47.97,32.3 91.12,25.1 z" />
  <path
     id="path3411"
     inkscape:connector-curvature="0"
     sodipodi:nodetypes="cscsscc"
     style="fill:#d6cec5;fill-rule:evenodd;stroke:#ffffff;stroke-width:10"
     d="m 290.96456,562.26789 c 74.03,-11.4 315.97,-91.68002 318.9,-103.65002 4.48,-18.31 -176.54,-314.33997 -176.54,-314.33997 0,0 -145.78,17.07998 -153.75,21.63997 -7.97,4.55 -88.84,253.98 -87.7,264.23 1.14,10.25 -14.8,82 -2.28,108.20002 29.35,44.92 58.22,31.12 101.37,23.92 z" />
  <path
     id="path3413"
     style="fill:#d6cec5;fill-rule:evenodd;stroke:#ffffff;stroke-width:10"
     d="m 295.51456,539.46789 c 74.03,-11.39 315.97,-91.67002 318.9,-103.65002 4.48,-18.31 -176.53,-314.33995 -176.53,-314.33995 0,0 -145.78,17.08998 -153.76,21.63998 -7.97,4.55999 -88.83,253.97997 -87.69,264.22997 1.14,10.25 -22.78,87.7 -10.25,113.89 29.34,44.91002 66.19,25.48002 109.33,18.23002 z"
     sodipodi:nodetypes="cscsscc"
     inkscape:transform-center-y="83.141169"
     inkscape:connector-curvature="0"
     inkscape:transform-center-x="473.79077" />
  <path
     id="path3415"
     style="fill:#d6cec5;fill-rule:evenodd;stroke:#ffffff;stroke-width:10"
     d="m 292.10456,523.46789 c 67.39,-8.50002 286.45,-90.38002 326.87,-116.17002 15.89,-10.14 -211.84,-309.789934 -211.84,-309.789934 0,0 -110.48,12.529994 -118.45,17.089994 -7.97,4.54999 -88.84,253.97994 -87.7,264.22994 1.14,10.25 -34.16,91.11 -21.64,117.31 29.35,44.93002 69.61,34.58002 112.76,27.33002 z"
     sodipodi:nodetypes="cscsscc"
     inkscape:transform-center-y="83.141169"
     inkscape:connector-curvature="0"
     inkscape:transform-center-x="473.79077" />
  <path
     id="path3401"
     inkscape:connector-curvature="0"
     sodipodi:nodetypes="ccsccssccc"
     style="fill:#ffcf9b;fill-rule:evenodd;stroke:#ffffff;stroke-width:10"
     d="m 11.389556,200.68787 c -5.6949999,-36.44999 12.528,-110.479948 12.528,-110.479948 0,0 4.555,-12.530026 13.667,-10.25002 9.111,2.280004 29.612,2.280004 29.612,2.280004 C 163.63156,76.017894 337.39656,6.6477518 359.89656,13.89777 c 84.62,123.66013 252.33,318.9601 250.56,357.6201 -1.05,23.03 -152.62,77.45 -223.23,101.37 -67.06,22.71 -140.09,48.97002 -157.17,33.03 -36.71,27.78002 -26.24,99.52002 -22.78,126.42022 L 11.386556,200.65787 Z" />
  <path
     id="path3417"
     inkscape:connector-curvature="0"
     sodipodi:nodetypes="cccsccccccccc"
     style="fill:none;stroke:#ffffff;stroke-width:10"
     d="m 338.26456,386.32787 c 33.03,-4.56 56.94,-18.22 56.94,-18.22 l -87.69,-141.23 c 0,0 33.11,-12.28 39.86,-14.81 9.11,-3.41 -17.08,-46.68999 -17.08,-46.68999 l -42.14,15.93999 -18.23,-34.15998 -52.39,17.07999 19.36,33.02999 -38.72,11.39 19.36,38.72 39.86,-11.39 80.87,150.34 z" />
  <path
     id="path3403"
     inkscape:connector-curvature="0"
     sodipodi:nodetypes="csc"
     style="fill:none;stroke:#ffffff;stroke-width:10"
     d="m 59.223556,111.84793 c 0,0 60.718004,108.82994 88.838004,177.66994 15.27,37.4 64.92,169.7 64.92,169.7" />
  <metadata
     id="metadata23">
    <rdf:RDF>
      <cc:Work>
        <dc:format>image/svg+xml</dc:format>
        <dc:type
           rdf:resource="http://purl.org/dc/dcmitype/StillImage" />
        <cc:license
           rdf:resource="http://creativecommons.org/publicdomain/zero/1.0/" />
        <dc:publisher>
          <cc:Agent
             rdf:about="http://openclipart.org/">
            <dc:title>Openclipart</dc:title>
          </cc:Agent>
        </dc:publisher>
        <dc:title></dc:title>
      </cc:Work>
      <cc:License
         rdf:about="http://creativecommons.org/publicdomain/zero/1.0/">
        <cc:permits
           rdf:resource="http://creativecommons.org/ns#Reproduction" />
        <cc:permits
           rdf:resource="http://creativecommons.org/ns#Distribution" />
        <cc:permits
           rdf:resource="http://creativecommons.org/ns#DerivativeWorks" />
      </cc:License>
    </rdf:RDF>
  </metadata>
  <g
     transform="matrix(0.76812704,0,0,0.76673603,324.76677,132.00667)"
     inkscape:label="Layer 1"
     id="layer1">
    <path
       transform="matrix(0.62991,-0.34552,0.34552,0.62991,-60.341,103.24)"
       d="m 228.56,63.781 c -74.164,0 -134.28,60.117 -134.28,134.28 0,74.164 60.117,134.31 134.28,134.31 74.164,0 134.31,-60.149 134.31,-134.31 0,-74.164 -60.149,-134.28 -134.31,-134.28 z m -17.125,285 0,111.44 34.281,0 0,-111.44 -34.281,0 z m -15.719,117.88 0,202.84 65.719,0 0,-202.84 -65.719,0 z"
       inkscape:connector-curvature="0"
       style="opacity:0.7;fill:none;stroke:#000000;stroke-width:20;filter:url(#filter4338)"
       id="path4331" />
    <g
       transform="matrix(0.62991,-0.34552,0.34552,0.62991,-65.176,102.96)"
       id="g4342">
      <circle
         transform="translate(-114.29,-100)"
         style="fill:none;stroke:#000000;stroke-width:20"
         id="path3811"
         cx="348.57144"
         cy="306.64789"
         r="134.28572" />
      <rect
         x="217.14"
         y="357.35999"
         width="34.285999"
         height="111.43"
         style="fill:#000000"
         id="rect4321" />
      <rect
         x="201.42999"
         y="475.22"
         width="65.713997"
         height="202.86"
         style="fill:#000000"
         id="rect4323" />
    </g>
  </g>
</svg>
